# xmcd CD database file
#
# Track frame offsets:
#	150
#	22503
#	42377
#	54304
#	71150
#	92547
#	112472
#	125641
#	143016
#	157067
#	167106
#	182956
#	209316
#	227909
#	238570
#	249041
#	269068
#	288159
#	306249
#	322419
#	337145
#
# Disc length: 4644 seconds
#
# Revision: 0
# Processed by: cddbd v1.5.1PL0 Copyright (c) Steve Scherf et al.
# Submitted via: CDex 1.51
#
DISCID=42122215
DTITLE=Art Tatum - Live 1944 - 1945, Volume 2
DYEAR=1945
DGENRE=Jazz
TTITLE0=Stormy Weather
TTITLE1=Sweet Lorraine
TTITLE2=Humoresque
TTITLE3=I Know That You Know
TTITLE4=Humoresque
TTITLE5=Ain't Misbehavin
TTITLE6=Smoke Gets In Your Eyes
TTITLE7=I Can't Give You Anything But Love
TTITLE8=Danny Boy
TTITLE9=How High The Moon
TTITLE10=Begin The Beguine
TTITLE11=Cherokee
TTITLE12=Down By The Old Mill Stream
TTITLE13=Sweet Lorraine
TTITLE14=How High The Moon
TTITLE15=Gershwin Medley (The Man I Love - Summertime - It Ain't Necessarily So - The Man I Love
TTITLE16=She's Funny That Way
TTITLE17=Lover
TTITLE18=Body And Soul
TTITLE19=I'm Beginning To See The Light
TTITLE20=Nine Twenty Special
EXTD=YEAR: 1945
EXTT0=
EXTT1=
EXTT2=
EXTT3=
EXTT4=
EXTT5=
EXTT6=
EXTT7=
EXTT8=
EXTT9=
EXTT10=
EXTT11=
EXTT12=
EXTT13=
EXTT14=
EXTT15=
EXTT16=
EXTT17=
EXTT18=
EXTT19=
EXTT20=
PLAYORDER=
